<svg width="334" height="103" viewBox="0 0 334 103" fill="none" xmlns="http://www.w3.org/2000/svg">
<g clip-path="url(#clip0_2_40)">
<path d="M240.79 103H44.5955L48.8265 94.8418H245.007L240.79 103Z" fill="#EB561D"/>
<path d="M308.599 22.0354C314.737 22.0354 319.713 17.1026 319.713 11.0177C319.713 4.93279 314.737 0 308.599 0C302.462 0 297.486 4.93279 297.486 11.0177C297.486 17.1026 302.462 22.0354 308.599 22.0354Z" fill="#EB561D"/>
<path d="M330.869 25.1192L324.974 21.2224L317.301 32.5765C317.105 32.8669 316.807 33.0739 316.465 33.1569C316.123 33.2399 315.763 33.1929 315.454 33.0251L279.716 13.7231C278.894 13.2798 277.993 13.0033 277.063 12.9094C276.133 12.8156 275.194 12.9063 274.3 13.1764C273.402 13.4446 272.567 13.886 271.841 14.4752C271.115 15.0645 270.513 15.7901 270.069 16.6107L261.748 31.1888C261.315 32.0032 261.047 32.8945 260.961 33.8117C260.875 34.7288 260.971 35.6539 261.245 36.534C261.519 37.414 261.965 38.2318 262.557 38.9406C263.149 39.6494 263.875 40.2352 264.695 40.6646L270.746 43.9446L278.883 30.6982C278.971 30.5347 279.09 30.39 279.234 30.2725C279.378 30.155 279.544 30.067 279.722 30.0135C279.9 29.9601 280.088 29.9423 280.273 29.9612C280.458 29.98 280.638 30.0352 280.802 30.1235L315.482 48.9909C316.516 49.5512 317.675 49.8452 318.853 49.846C320.018 49.8515 321.166 49.5702 322.195 49.0272C323.223 48.4842 324.101 47.6964 324.748 46.7341L332.787 34.8473C333.304 34.0834 333.664 33.2258 333.848 32.3235C334.031 31.4211 334.034 30.4918 333.856 29.5884C333.678 28.685 333.322 27.8254 332.81 27.0585C332.297 26.2917 331.638 25.6327 330.869 25.1192Z" fill="#EB561D"/>
<path d="M311.364 52.8037L290.209 53.1541L295.512 44.8278C295.614 44.6655 295.682 44.4842 295.711 44.295C295.74 44.1057 295.73 43.9125 295.681 43.7273C295.632 43.5421 295.545 43.3689 295.427 43.2182C295.308 43.0675 295.159 42.9427 294.99 42.8513L284.751 37.3705C284.432 37.1995 284.06 37.1566 283.711 37.2505C283.362 37.3444 283.063 37.568 282.875 37.8751L245.007 103C250.846 102.93 247.616 102.93 250.846 102.93H258.574C259.294 102.926 260 102.74 260.627 102.389C261.254 102.038 261.78 101.535 262.157 100.925L285.921 62.5598H297.416C297.909 62.5627 298.394 62.6944 298.82 62.9417C299.246 63.1889 299.6 63.5431 299.846 63.9688C300.091 64.3945 300.22 64.8768 300.219 65.3675C300.219 65.8582 300.088 66.3401 299.841 66.765L285.865 89.8797C285.622 90.2965 285.491 90.7685 285.485 91.25C285.479 91.7316 285.598 92.2065 285.831 92.6291C286.063 93.0517 286.401 93.4076 286.812 93.6626C287.223 93.9176 287.694 94.0631 288.178 94.085H299.602L317.725 63.2466C318.477 61.9062 318.766 60.3573 318.547 58.8379C318.328 57.3185 317.613 55.9127 316.512 54.8362C315.127 53.5197 313.28 52.7908 311.364 52.8037Z" fill="#EB561D"/>
<path d="M255.669 32.2961H236.446L242.285 24.1379H260.718L255.669 32.2961Z" fill="#EB561D"/>
<path d="M163.742 32.2961H134.675L140.514 24.1379H167.959L163.742 32.2961Z" fill="#EB561D"/>
<path d="M114.648 11.0177H96.8773C96.4583 10.9879 96.0434 11.1154 95.7144 11.3749C95.3854 11.6344 95.1662 12.0071 95.1002 12.4194L78.176 66.2883H77.9785L73.5359 17.2274C73.3949 16.3022 72.9436 15.8256 72.1256 15.8256H51.2946C50.943 15.7746 50.5848 15.8575 50.292 16.0576C49.9991 16.2577 49.7931 16.5604 49.7151 16.905L35.7949 65.8678H35.5974L28.9828 12.1951C28.8418 11.4102 28.447 11.0177 27.7982 11.0177H9.8303H9.59047H0.0283203C6.49031 17.4556 10.7318 25.7643 12.1432 34.7492L19.9002 84.2867C20.0976 85.324 20.6476 85.8567 21.5785 85.8567H34.4128C37.9399 86.0345 41.4226 85.0109 44.2852 82.9551C46.7533 81.0207 48.6432 77.8107 49.9266 73.2971L59.7004 38.8563H59.8979L63.9456 84.0905C63.9213 84.3284 63.9506 84.5686 64.0314 84.7939C64.1121 85.0191 64.2422 85.2236 64.4123 85.3927C64.5824 85.5618 64.7882 85.6911 65.0149 85.7714C65.2415 85.8516 65.4832 85.8808 65.7225 85.8567H78.6555C80.5156 85.8836 82.372 85.6859 84.1841 85.2679C85.7247 84.9071 87.1683 84.2184 88.4152 83.2494C89.7341 82.1894 90.8395 80.891 91.6731 79.4227C92.7852 77.4769 93.6971 75.4246 94.3951 73.2971L115.72 12.5596C116.058 11.5363 115.691 11.0177 114.648 11.0177Z" fill="white"/>
<path d="M162.134 36.8237H136.635C133.201 36.8225 129.798 37.4694 126.607 38.7301C123.379 40.0003 120.442 41.9076 117.976 44.3371C115.381 46.8765 113.303 49.8891 111.855 53.2101C110.209 57.0077 109.369 61.102 109.387 65.237C109.284 68.2104 109.699 71.1791 110.614 74.0119C111.43 76.5309 112.739 78.865 114.464 80.8805C116.141 82.8091 118.233 84.3375 120.585 85.352C123.099 86.4167 125.807 86.9513 128.54 86.922C131.699 87.01 134.838 86.387 137.721 85.0997C140.222 83.8855 142.39 82.0866 144.039 79.8572L143.743 84.3708C143.602 85.4081 144.096 85.9408 145.224 85.9408H159.934C160.133 85.9647 160.335 85.9462 160.526 85.8865C160.717 85.8268 160.893 85.7274 161.043 85.5948C161.192 85.4621 161.311 85.2994 161.393 85.1173C161.474 84.9353 161.515 84.7382 161.514 84.539L164.334 39.0104C164.383 38.727 164.373 38.4366 164.305 38.157C164.237 37.8775 164.113 37.6146 163.939 37.3844C163.434 36.9708 162.786 36.7696 162.134 36.8237ZM145.097 62.3354C145.039 65.2462 144.012 68.0557 142.178 70.3254C141.374 71.2355 140.379 71.9586 139.262 72.4431C138.146 72.9277 136.936 73.1618 135.718 73.1288C134.608 73.1929 133.498 73.0054 132.472 72.5804C131.446 72.1554 130.53 71.5042 129.795 70.6758C128.281 68.607 127.578 66.0599 127.82 63.5129C127.82 59.4478 129.033 56.5042 131.276 54.4857C133.664 52.4657 136.731 51.4146 139.865 51.542H145.887L145.097 62.3354Z" fill="white"/>
<path d="M187.944 15.4332C186.489 14.0093 184.763 12.8892 182.866 12.1391C181.047 11.4057 179.103 11.025 177.14 11.0177C176.35 11.0177 175.913 11.4382 175.857 12.2933L169.835 84.4129C169.791 84.6065 169.8 84.8081 169.859 84.9974C169.919 85.1868 170.027 85.3574 170.173 85.4923C170.461 85.7449 170.832 85.8845 171.217 85.8847H186.322C186.484 85.8923 186.646 85.8677 186.799 85.8124C186.952 85.7571 187.092 85.6722 187.211 85.5627C187.33 85.4531 187.427 85.3211 187.494 85.1742C187.562 85.0274 187.6 84.8687 187.605 84.7073L192.344 28.4834C192.576 25.9084 192.254 23.3137 191.399 20.8719C190.671 18.8249 189.49 16.9663 187.944 15.4332Z" fill="white"/>
<path d="M252.665 37.2583C252.524 36.964 252.2 36.8238 251.678 36.8238H234.5C234.108 36.7911 233.715 36.8587 233.357 37.02C233.087 37.1919 232.864 37.428 232.708 37.7069L219.296 55.9295C219.159 56.0675 219.052 56.2321 218.982 56.4132C218.912 56.5942 218.881 56.7877 218.891 56.9814C218.9 57.175 218.949 57.3646 219.036 57.5383C219.123 57.7119 219.245 57.8658 219.395 57.9901C223.262 61.363 226.343 65.5333 228.423 70.2103C230.503 74.8874 231.532 79.959 231.439 85.0718C231.423 85.1915 231.435 85.3134 231.473 85.428C231.512 85.5425 231.577 85.6466 231.663 85.732C231.749 85.8175 231.854 85.8821 231.969 85.9207C232.084 85.9594 232.207 85.9711 232.328 85.9549H248.913C249.562 85.9549 249.83 85.5203 249.689 84.6793C249.289 79.3772 248.042 74.1722 245.994 69.2601C243.886 64.3881 240.537 60.1463 236.277 56.9528L252.369 38.5059C252.531 38.3467 252.645 38.1452 252.698 37.9245C252.75 37.7038 252.739 37.4729 252.665 37.2583Z" fill="white"/>
<path d="M217.42 15.237C214.839 12.5456 210.834 11.1439 205.362 11.0317C204.445 11.0317 203.951 11.4242 203.951 12.2092L197.732 84.427C197.688 84.6206 197.697 84.8221 197.756 85.0115C197.815 85.2008 197.924 85.3715 198.07 85.5063C198.358 85.759 198.729 85.8985 199.114 85.8988H214.205C214.366 85.9063 214.528 85.8816 214.68 85.8262C214.831 85.7707 214.971 85.6856 215.089 85.5759C215.207 85.4662 215.302 85.334 215.368 85.1873C215.434 85.0405 215.47 84.8821 215.474 84.7213L220.706 26.0444C221.059 21.5168 219.987 17.9143 217.42 15.237Z" fill="white"/>
</g>
<defs>
<clipPath id="clip0_2_40">
<rect width="334" height="103" fill="white"/>
</clipPath>
</defs>
</svg>
