<svg width="15" height="16" viewBox="0 0 15 16" fill="none" xmlns="http://www.w3.org/2000/svg">
<path d="M4.50094 10.4048C4.50094 10.6036 4.42196 10.7942 4.28137 10.9348C4.14079 11.0754 3.95011 11.1544 3.75129 11.1544H3.00165C2.26755 11.1552 1.55868 10.8866 1.00938 10.3996C0.460066 9.91261 0.108483 9.24103 0.0212525 8.51214C-0.0659785 7.78324 0.117203 7.04767 0.536084 6.44481C0.954966 5.84195 1.58044 5.4137 2.29398 5.2412C2.43968 4.10161 2.95528 3.0413 3.76168 2.22298C4.56807 1.40467 5.6207 0.87357 6.75804 0.711178C7.89538 0.548787 9.05458 0.764077 10.0578 1.32401C11.061 1.88395 11.8527 2.75759 12.3115 3.81088C13.1764 4.06581 13.9204 4.62398 14.4071 5.38303C14.8938 6.14209 15.0905 7.05115 14.9613 7.94352C14.832 8.83589 14.3854 9.65176 13.7033 10.2415C13.0212 10.8313 12.1494 11.1554 11.2477 11.1544C11.0489 11.1543 10.8583 11.0752 10.7178 10.9346C10.5773 10.7939 10.4984 10.6032 10.4985 10.4044C10.4986 10.2056 10.5776 10.0149 10.7183 9.87441C10.859 9.7339 11.0497 9.65501 11.2485 9.65511C11.7898 9.65623 12.3133 9.46208 12.723 9.1083C13.1327 8.75452 13.401 8.26484 13.4788 7.72916C13.5565 7.19347 13.4384 6.64772 13.1462 6.19209C12.854 5.73645 12.4072 5.40149 11.8879 5.2487L11.2178 5.05079L10.9381 4.4106C10.6106 3.65809 10.0453 3.03384 9.3288 2.63363C8.61231 2.23342 7.7843 2.07938 6.97183 2.19513C6.15935 2.31088 5.40731 2.69004 4.83109 3.27441C4.25488 3.85878 3.88634 4.61609 3.78203 5.43011L3.65234 6.45563L2.64782 6.69851C2.29344 6.78724 1.9836 7.00217 1.77638 7.30302C1.56915 7.60387 1.47877 7.96997 1.52218 8.33269C1.56559 8.69542 1.73981 9.02985 2.01217 9.27331C2.28454 9.51676 2.63635 9.65251 3.00165 9.65511H3.75129C3.95011 9.65511 4.14079 9.73409 4.28137 9.87468C4.42196 10.0153 4.50094 10.2059 4.50094 10.4048ZM10.1533 11.9393C10.2938 12.0799 10.3727 12.2705 10.3727 12.4693C10.3727 12.6681 10.2938 12.8587 10.1533 12.9993L8.02877 15.1223C7.73566 15.4146 7.26113 15.4146 6.96802 15.1223L4.84353 12.9993C4.70697 12.8579 4.63141 12.6685 4.63312 12.472C4.63483 12.2754 4.71367 12.0874 4.85266 11.9484C4.99165 11.8094 5.17967 11.7306 5.37622 11.7289C5.57278 11.7272 5.76214 11.8027 5.90352 11.9393L6.74987 12.7856V6.65653C6.74987 6.45771 6.82885 6.26704 6.96944 6.12645C7.11002 5.98587 7.3007 5.90689 7.49952 5.90689C7.69834 5.90689 7.88901 5.98587 8.0296 6.12645C8.17018 6.26704 8.24916 6.45771 8.24916 6.65653V12.7834L9.09326 11.9393C9.23384 11.7987 9.42448 11.7198 9.62326 11.7198C9.82204 11.7198 10.0127 11.7987 10.1533 11.9393Z" fill="white"/>
</svg>
