<?xml version="1.0" encoding="utf-8"?>
<!-- Generator: Adobe Illustrator 27.8.1, SVG Export Plug-In . SVG Version: 6.00 Build 0)  -->
<svg version="1.1" id="图层_1" xmlns="http://www.w3.org/2000/svg" xmlns:xlink="http://www.w3.org/1999/xlink" x="0px" y="0px"
	 viewBox="0 0 200 156.1" style="enable-background:new 0 0 200 156.1;" xml:space="preserve">
<style type="text/css">
	.st0{fill:#F8B62D;}
</style>
<path class="st0" d="M141.6,123.9c5.6,0.8,12.1,1.2,19,1.2c21.8,0,39.4-4.4,39.4-9.7v-9.7c0-0.5-0.2-1-0.5-1.5
	c-3,4.6-19.3,8.2-38.9,8.2c-6.9,0-13.3-0.4-19-1.2v8.6L141.6,123.9L141.6,123.9z"/>
<path class="st0" d="M160.6,108.3c21.8,0,39.4-4.4,39.4-9.7v-9.7c0-0.4-0.1-0.9-0.4-1.3c-2.6,4.7-19.1,8.4-39,8.4
	c-6.9,0-13.3-0.4-19-1.2v12.4C147.2,107.9,153.7,108.3,160.6,108.3z"/>
<path class="st0" d="M160.6,91.8c21.8,0,39.4-4.4,39.4-9.7v-9.7c0-0.4-0.1-0.8-0.3-1.2c-2.4,4.8-19,8.5-39.1,8.5
	c-6.9,0-13.3-0.4-19-1.2v12.1C147.2,91.4,153.7,91.8,160.6,91.8z"/>
<path class="st0" d="M160.6,75.7c21.8,0,39.4-4.4,39.4-9.7v-9.7c0-0.1,0-0.3,0-0.4c-0.9,5.2-18.2,9.3-39.4,9.3
	c-6.9,0-13.3-0.4-19-1.2v10.6C147.2,75.3,153.7,75.7,160.6,75.7z"/>
<path class="st0" d="M160.6,49.7c-20.7,0-37.6-3.9-39.3-8.9c-0.1,0.3-0.1,0.5-0.1,0.8V47c12.2,1.7,20.4,4.9,20.4,8.5v4.1v0.1
	c5.6,0.8,12.1,1.2,19,1.2c21.8,0,39.4-4.4,39.4-9.7v-9.7c0-0.3-0.1-0.5-0.1-0.8C198.2,45.7,181.2,49.7,160.6,49.7z"/>
<path class="st0" d="M160.6,33.3c-19.9,0-36.4-3.7-39-8.4c-0.2,0.4-0.4,0.9-0.4,1.3V36c0,5.4,17.6,9.7,39.4,9.7S200,41.3,200,36
	v-9.7c0-0.5-0.1-0.9-0.4-1.3C197,29.6,180.5,33.3,160.6,33.3z"/>
<path class="st0" d="M160.6,0c-21.8,0-39.4,4.4-39.4,9.7v9.7c0,5.4,17.6,9.7,39.4,9.7s39.4-4.4,39.4-9.7l0-9.7
	C200,4.4,182.3,0,160.6,0z"/>
<path class="st0" d="M83.7,143.4c4.3,0.4,8.9,0.6,13.6,0.6c21.8,0,39.4-4.4,39.4-9.7v-9.7c0-0.5-0.2-1-0.5-1.5
	c-3,4.6-19.3,8.2-38.9,8.2c-4.8,0-9.4-0.2-13.6-0.6v3.2L83.7,143.4L83.7,143.4z"/>
<path class="st0" d="M83.7,120.4v6v0.2c4.3,0.4,8.9,0.6,13.6,0.6c21.8,0,39.4-4.4,39.4-9.7v-9.7c0-0.5-0.1-0.9-0.4-1.3
	c-2.6,4.7-19.1,8.4-39,8.4c-4.8,0-9.4-0.2-13.6-0.6v2L83.7,120.4z"/>
<path class="st0" d="M83.7,103.2v5.9v1c4.3,0.4,8.9,0.6,13.6,0.6c21.8,0,39.4-4.4,39.4-9.7v-9.7c0-0.4-0.1-0.8-0.3-1.2
	c-2.4,4.8-19,8.5-39.1,8.5c-4.9,0-9.5-0.2-13.8-0.6c0.1,0.3,0.2,0.6,0.2,0.9L83.7,103.2L83.7,103.2z"/>
<path class="st0" d="M97.3,84c-21.2,0-38.4-4.1-39.4-9.3c0,0.1,0,0.3,0,0.4v9.7c0,1.9,2.3,3.7,6.1,5.2c5.2,0.8,9.6,1.8,12.9,3.1
	c5.9,0.9,12.9,1.4,20.4,1.4c21.8,0,39.4-4.4,39.4-9.7v-9.7c0-0.1,0-0.3,0-0.4C135.8,79.9,118.5,84,97.3,84z"/>
<path class="st0" d="M97.3,50.7c-21.8,0-39.4,4.4-39.4,9.7v9.7c0,5.4,17.6,9.7,39.4,9.7c21.8,0,39.4-4.4,39.4-9.7v-9.7
	C136.7,55.1,119.1,50.7,97.3,50.7z"/>
<path class="st0" d="M39.4,143.3c-19.6,0-35.9-3.5-38.9-8.2c-0.3,0.5-0.5,1-0.5,1.5v9.7c0,5.4,17.6,9.7,39.4,9.7s39.4-4.4,39.4-9.7
	v-9.7c0-0.5-0.2-1-0.5-1.5C75.3,139.7,59,143.3,39.4,143.3z"/>
<path class="st0" d="M39.4,126.9c-19.9,0-36.4-3.7-39-8.4C0.1,119,0,119.4,0,119.8v9.7c0,5.4,17.6,9.7,39.4,9.7s39.4-4.4,39.4-9.7
	v-9.7c0-0.5-0.1-0.9-0.4-1.3C75.8,123.3,59.3,126.9,39.4,126.9z"/>
<path class="st0" d="M0,113.1c0,5.4,17.6,9.7,39.4,9.7s39.4-4.4,39.4-9.7v-9.7c0-5.4-17.6-9.7-39.4-9.7S0,98,0,103.3V113.1z"/>
</svg>
