<?xml version="1.0" standalone="no"?><!DOCTYPE svg PUBLIC "-//W3C//DTD SVG 1.1//EN" "http://www.w3.org/Graphics/SVG/1.1/DTD/svg11.dtd"><svg class="icon" width="200px" height="200.00px" viewBox="0 0 1024 1024" version="1.1" xmlns="http://www.w3.org/2000/svg"><path d="M457.898667 635.050667h108.202666v162.645333h-108.202666z" fill="#FFBE61" /><path d="M403.797333 743.424h216.405334q54.272 0 54.272 54.101333 0 54.272-54.272 54.272H403.797333q-54.272 0-54.272-54.272 0-53.930667 54.272-54.101333zM728.576 256H836.266667a54.101333 54.101333 0 0 1 54.101333 54.101333v108.714667a108.202667 108.202667 0 0 1-108.202667 108.202667h-53.589333zM187.733333 256h108.202667v270.506667h-54.613333a108.202667 108.202667 0 0 1-108.202667-108.202667v-108.714667A54.101333 54.101333 0 0 1 187.733333 256z" fill="#FFBE61" /><path d="M349.525333 147.114667h324.266667A108.202667 108.202667 0 0 1 782.677333 256v163.328a270.677333 270.677333 0 0 1-541.354666 0V256a108.202667 108.202667 0 0 1 108.202666-108.885333z" fill="#FFBE61" /><path d="M537.770667 274.602667a26.965333 26.965333 0 0 1 0 38.229333L460.8 389.632a26.965333 26.965333 0 0 1-38.229333 0 27.306667 27.306667 0 0 1 0-38.229333l76.629333-76.8a26.965333 26.965333 0 0 1 38.229333 0z m92.330666 108.544a26.965333 26.965333 0 0 1 0 38.229333l-114.858666 115.029333a27.136 27.136 0 0 1-38.229334 0 26.965333 26.965333 0 0 1 0-38.229333l114.858667-115.029333a26.965333 26.965333 0 0 1 38.229333 0z" fill="#FFFFFF" opacity=".5" /></svg>