<?xml version="1.0" encoding="utf-8"?>
<!-- Generator: Adobe Illustrator 27.8.1, SVG Export Plug-In . SVG Version: 6.00 Build 0)  -->
<svg version="1.1" id="图层_1" xmlns="http://www.w3.org/2000/svg" xmlns:xlink="http://www.w3.org/1999/xlink" x="0px" y="0px"
	 viewBox="0 0 200 200" style="enable-background:new 0 0 200 200;" xml:space="preserve">
<style type="text/css">
	.st0{fill:#FFC26B;}
</style>
<path class="st0" d="M174,31.4c-42.5-0.4-64.3-19.2-71.8-27.5c0,0-2.8-3.1-6.4,0.2c-7.7,8.3-29.5,26.9-71.7,27.3
	c0,0-30.1,105.5,73.9,165.3l0.5,0c12-6.9,22.4-14.5,31.4-22.4c0,0,11.1-9,25.7-28.7C193.9,90.7,174,31.4,174,31.4z M47.9,47.5
	c-2.9,0.9-6.2,1.5-8.5,1.8c-0.9,5-2.5,16.9-0.1,31.2c0.4,2.2-1.1,4.3-3.4,4.7c-0.2,0-0.4,0.1-0.7,0.1c-2,0-3.7-1.4-4-3.4
	c-3.4-20.9,0.7-36.6,0.9-37.2c0.4-1.6,1.9-2.8,3.5-3c0.1,0,5.7-0.6,9.8-1.9c2.2-0.6,4.4,0.5,5.1,2.7C51.2,44.6,50,46.8,47.9,47.5z"
	/>
</svg>
